<?xml version="1.0" standalone="no"?>
<!DOCTYPE svg PUBLIC "-//W3C//DTD SVG 20010904//EN"
 "http://www.w3.org/TR/2001/REC-SVG-20010904/DTD/svg10.dtd">
<svg version="1.0" xmlns="http://www.w3.org/2000/svg"
 width="400.000000pt" height="400.000000pt" viewBox="0 0 400.000000 400.000000"
 preserveAspectRatio="xMidYMid meet">
<metadata>
Created by potrace 1.11, written by Peter Selinger 2001-2013
</metadata>
<g transform="translate(0.000000,400.000000) scale(0.100000,-0.100000)"
fill="#000000" stroke="none">
<path d="M0 2000 l0 -2000 2000 0 2000 0 0 2000 0 2000 -2000 0 -2000 0 0
-2000z m2005 1778 c-11 -6 -28 -18 -37 -26 -10 -8 -18 -11 -18 -6 0 10 50 43
65 43 6 0 1 -5 -10 -11z m146 -25 c13 -16 12 -17 -3 -4 -10 7 -18 15 -18 17 0
8 8 3 21 -13z m-220 -54 c-5 -13 -10 -19 -10 -12 -1 15 10 45 15 40 3 -2 0
-15 -5 -28z m-14 -61 c-3 -7 -5 -2 -5 12 0 14 2 19 5 13 2 -7 2 -19 0 -25z
m23 -53 c0 -5 -5 -3 -10 5 -5 8 -10 20 -10 25 0 6 5 3 10 -5 5 -8 10 -19 10
-25z m128 -65 c53 3 64 1 58 -8 -3 -5 8 -21 25 -36 16 -15 29 -32 29 -37 0 -6
5 -7 10 -4 6 3 10 2 10 -2 0 -9 30 -49 66 -89 11 -13 29 -41 39 -64 10 -22 22
-40 27 -40 5 0 6 -4 3 -10 -3 -5 -2 -10 4 -10 6 0 8 -6 5 -13 -3 -9 9 -19 35
-29 36 -14 41 -14 57 1 17 15 17 15 4 -2 -12 -16 -12 -20 1 -28 23 -14 -4 -10
-31 6 -43 24 -59 19 -53 -16 2 -17 1 -29 -4 -26 -4 3 -35 8 -68 12 -33 3 -65
11 -71 16 -7 5 -14 6 -16 1 -5 -13 -147 -2 -142 12 2 6 -8 19 -23 29 -16 11
-37 31 -47 45 -15 20 -9 17 23 -11 41 -37 44 -38 62 -21 19 17 52 110 44 124
-2 4 0 21 5 39 5 17 6 29 2 27 -4 -2 -15 22 -26 55 -17 54 -21 60 -55 69 -20
5 -45 17 -56 25 -17 14 -16 14 13 0 19 -9 50 -16 70 -15z m-68 -13 c0 -2 -15
-16 -32 -33 l-33 -29 29 33 c28 30 36 37 36 29z m-82 -42 c-6 -14 -13 -23 -15
-21 -5 5 15 46 22 46 3 0 -1 -11 -7 -25z m-247 -17 c11 -21 11 -22 -4 -9 -10
7 -17 17 -17 22 0 15 9 10 21 -13z m-34 -55 c-3 -10 -5 -4 -5 12 0 17 2 24 5
18 2 -7 2 -21 0 -30z m283 29 c0 -2 -18 -25 -40 -50 -40 -45 -41 -46 -21 -65
19 -19 19 -19 47 6 15 15 30 24 32 22 6 -6 -51 -53 -63 -52 -5 0 -18 11 -27
23 -17 21 -17 23 3 48 21 27 21 28 -26 40 -11 3 -1 3 23 1 36 -5 42 -3 42 13
0 10 7 19 15 19 8 0 15 -2 15 -5z m-131 -18 c10 -9 -55 -3 -69 6 -10 6 -2 7
25 3 22 -3 42 -7 44 -9z m529 -76 c17 -22 32 -48 31 -57 0 -9 -6 -5 -13 12 -7
16 -17 32 -22 35 -18 14 -47 52 -38 51 5 0 24 -18 42 -41z m-306 -8 c37 -37
42 -39 53 -23 8 10 16 15 19 12 3 -3 -2 -13 -12 -22 -17 -16 -21 -14 -71 28
-29 25 -47 45 -41 45 7 0 30 -18 52 -40z m-442 15 c16 -19 1 -19 -24 0 -16 12
-17 15 -4 15 8 0 21 -7 28 -15z m94 -1 c3 -8 2 -12 -4 -9 -6 3 -10 10 -10 16
0 14 7 11 14 -7z m922 4 c4 -7 3 -8 -5 -4 -6 4 -18 2 -26 -4 -8 -7 -15 -8 -15
-3 0 23 33 32 46 11z m-886 -63 c-7 -8 -18 -15 -24 -15 -6 0 -3 7 8 15 11 8
15 19 11 27 -6 10 -5 10 5 1 11 -10 11 -15 0 -28z m818 6 c-7 -12 -16 -21 -21
-21 -4 0 -6 4 -2 9 3 5 -3 12 -12 14 -14 4 -13 5 4 6 12 0 25 6 28 12 4 6 9 8
12 6 2 -3 -2 -14 -9 -26z m66 3 c-3 -11 -14 -26 -25 -32 -18 -11 -17 -9 3 22
25 38 30 40 22 10z m-970 -24 c-6 -5 -24 21 -24 34 0 6 6 1 14 -10 8 -10 12
-21 10 -24z m181 -15 c-14 -26 -25 -42 -25 -35 0 15 42 91 47 86 2 -2 -8 -25
-22 -51z m-219 -20 c-1 -5 -12 -11 -24 -11 -20 -2 -20 -1 -2 3 25 6 25 15 0
38 -11 10 -20 23 -20 29 0 6 11 -2 25 -19 13 -16 23 -34 21 -40z m883 51 c-2
-2 -17 -6 -34 -10 -22 -5 -26 -4 -15 4 14 9 59 15 49 6z m-819 -36 c0 -5 -2
-10 -4 -10 -3 0 -8 5 -11 10 -3 6 -1 10 4 10 6 0 11 -4 11 -10z m989 -3 c9
-11 2 -18 -32 -31 -37 -16 -40 -19 -22 -26 19 -8 19 -9 -3 -9 -32 -1 -24 20
16 40 23 12 28 19 20 27 -8 8 -9 12 -1 12 6 0 16 -6 22 -13z m-819 -22 c-7 -9
-15 -13 -18 -10 -3 2 1 11 8 20 7 9 15 13 18 10 3 -2 -1 -11 -8 -20z m130 11
c0 -2 -15 -15 -34 -29 l-33 -26 -24 27 c-18 20 -19 23 -3 9 26 -22 30 -21 61
3 25 20 33 24 33 16z m-437 -22 c7 1 8 1 4 -2 -4 -2 -2 -11 5 -20 9 -12 6 -11
-10 2 -12 11 -22 24 -21 30 0 7 2 7 5 -1 3 -7 11 -11 17 -9z m1006 -24 c-13
-16 -25 -28 -27 -25 -5 5 37 55 45 55 2 0 -6 -13 -18 -30z m-878 -22 c16 -29
2 -21 -22 15 -17 23 -18 28 -6 18 10 -8 23 -23 28 -33z m97 1 c24 13 42 14 42
3 0 -4 -8 -8 -17 -9 -10 -1 -27 -4 -39 -8 -16 -5 -25 0 -39 22 l-18 28 26 -23
c20 -19 29 -22 45 -13z m912 1 c18 -12 2 -12 -25 0 -13 6 -15 9 -5 9 8 0 22
-4 30 -9z m-1085 -20 c3 -5 2 -10 -4 -10 -5 0 -13 5 -16 10 -3 6 -2 10 4 10 5
0 13 -4 16 -10z m975 -36 c0 -2 -13 2 -30 11 -16 9 -30 18 -30 21 0 2 14 -2
30 -11 17 -9 30 -18 30 -21z m-1030 17 c-14 -5 -40 -16 -58 -25 -17 -9 -32
-14 -32 -11 0 9 75 44 95 44 16 -1 15 -2 -5 -8z m159 6 c-32 -25 -69 -47 -69
-40 0 8 49 41 64 42 5 1 7 0 5 -2z m96 -18 c-6 -19 -4 -20 32 -15 l38 6 -38
-12 c-23 -8 -35 -17 -30 -22 4 -5 3 -6 -3 -3 -10 6 -11 24 -5 60 0 4 4 7 7 7
3 0 2 -9 -1 -21z m42 15 c-3 -3 -12 -4 -19 -1 -8 3 -5 6 6 6 11 1 17 -2 13 -5z
m917 -9 c4 -11 -2 -15 -21 -15 -15 0 -36 -8 -47 -17 -21 -18 -21 -18 -2 5 11
12 28 22 38 22 11 0 16 5 13 10 -3 6 -2 10 3 10 6 0 12 -7 16 -15z m-616 -2
c-32 -2 -86 -2 -120 0 -35 2 -9 3 57 3 66 0 94 -1 63 -3z m-220 -10 c-10 -2
-26 -2 -35 0 -10 3 -2 5 17 5 19 0 27 -2 18 -5z m350 0 c-10 -2 -26 -2 -35 0
-10 3 -2 5 17 5 19 0 27 -2 18 -5z m72 -13 c-20 -13 -40 -13 -40 0 0 6 12 10
28 10 21 0 24 -2 12 -10z m55 0 c-10 -17 4 -46 28 -59 18 -9 18 -10 2 -6 -35
11 -40 10 -40 -5 0 -10 8 -14 23 -13 13 2 21 -1 17 -7 -10 -15 -45 -12 -51 5
-4 8 -1 21 5 29 13 15 5 46 -13 47 -6 0 -2 4 9 9 27 12 27 12 20 0z m200 0 c3
-5 1 -10 -4 -10 -6 0 -11 5 -11 10 0 6 2 10 4 10 3 0 8 -4 11 -10z m-1165 -23
c0 -2 -10 -12 -21 -23 -22 -19 -22 -19 -10 4 10 18 31 31 31 19z m169 1 c-2
-2 -17 -14 -34 -28 l-30 -25 24 28 c14 15 29 27 34 27 6 0 8 -1 6 -2z m141 -8
c0 -5 -6 -7 -14 -4 -8 3 -32 -4 -55 -16 -23 -11 -41 -18 -41 -15 0 8 74 44 93
45 9 0 17 -4 17 -10z m510 0 c-8 -5 -19 -10 -25 -10 -5 0 -3 5 5 10 8 5 20 10
25 10 6 0 3 -5 -5 -10z m500 -32 c0 -5 -13 1 -30 14 -16 12 -30 23 -30 25 0 2
14 -4 30 -14 17 -9 30 -21 30 -25z m-932 -20 c-10 -20 -43 -24 -53 -8 -4 7 2
9 19 4 24 -6 26 -4 27 27 0 28 2 30 8 14 5 -11 4 -28 -1 -37z m382 33 c-8 -5
-26 -11 -40 -15 -21 -5 -20 -3 5 9 32 15 60 20 35 6z m470 -16 c13 -14 21 -25
18 -25 -2 0 -15 11 -28 25 -13 14 -21 25 -18 25 2 0 15 -11 28 -25z m-1263
-24 c15 5 45 9 69 8 l42 -3 -16 -24 c-9 -14 -18 -20 -20 -13 -3 9 -8 9 -20 -1
-15 -12 -16 -11 -3 4 7 10 17 16 21 13 5 -3 11 -1 14 4 11 17 -92 6 -112 -12
-27 -24 -33 -21 -20 9 7 15 14 21 16 16 2 -8 12 -8 29 -1z m193 6 c0 -2 -15
-14 -32 -27 l-33 -23 24 26 c21 23 41 35 41 24z m330 -17 l55 -7 -45 -1 c-25
-1 -58 6 -75 14 -16 8 -21 11 -10 8 11 -3 45 -10 75 -14z m125 10 c-11 -5 -31
-8 -45 -8 -23 0 -22 1 5 8 42 11 65 11 40 0z m538 -15 c54 -22 45 -28 -10 -6
-73 28 -80 32 -52 26 14 -2 42 -11 62 -20z m207 -28 c0 -12 0 -11 -24 28 l-17
30 20 -24 c12 -13 21 -28 21 -34z m-65 3 c-3 -5 -1 -11 5 -15 6 -4 8 -11 5
-16 -4 -5 3 -21 14 -35 12 -15 21 -32 21 -39 0 -7 7 -18 15 -25 8 -7 15 -17
15 -23 0 -13 -58 60 -65 83 -3 11 -12 17 -20 14 -7 -3 -16 0 -21 7 -5 9 -2 10
9 6 21 -8 22 2 3 29 -13 18 -12 20 5 21 11 1 17 -2 14 -7z m-1215 -13 c0 -2
-12 -14 -27 -28 l-28 -24 24 28 c23 25 31 32 31 24z m1170 -7 c0 -5 -2 -10 -4
-10 -3 0 -8 5 -11 10 -3 6 -1 10 4 10 6 0 11 -4 11 -10z m-1254 -17 c-5 -30
-18 -53 -25 -48 -4 2 -7 -6 -6 -18 1 -12 -5 -30 -13 -39 -8 -10 -11 -18 -7
-18 4 0 0 -9 -10 -20 -18 -19 -18 -23 -2 -73 15 -47 21 -54 66 -74 l49 -23
598 0 c578 0 674 4 674 30 0 6 6 10 14 10 25 0 48 49 44 96 -3 38 -1 42 9 27
7 -10 17 -23 22 -29 5 -7 7 -15 4 -18 -4 -3 -1 -6 5 -6 6 0 14 -20 18 -45 3
-25 10 -48 15 -51 5 -3 7 -10 4 -15 -4 -5 -3 -14 1 -21 4 -6 8 -24 9 -40 2
-25 -1 -28 -26 -28 -16 -1 -373 -1 -794 -1 -421 0 -773 0 -784 1 -20 0 -35 42
-20 57 5 5 10 22 12 38 2 17 9 41 15 55 6 14 13 36 16 50 3 14 15 36 27 48 11
13 18 26 15 29 -3 3 1 15 9 27 8 11 15 29 15 39 0 15 38 77 47 77 1 0 1 -8 -1
-17z m-2 -68 c-4 -8 -11 -15 -16 -15 -6 0 -5 6 2 15 7 8 14 15 16 15 2 0 1 -7
-2 -15z m-74 -448 c0 -2 -10 -12 -21 -23 -22 -19 -22 -19 -10 4 10 18 31 31
31 19z m125 -17 c27 -30 12 -34 -15 -5 -13 14 -19 25 -13 25 5 0 18 -9 28 -20z
m535 13 c0 -5 -33 -7 -72 -5 -132 5 -145 9 -35 10 59 1 107 -1 107 -5z m368
-60 c0 -44 -3 -61 -8 -48 -4 11 -6 39 -3 63 l6 42 -101 0 c-87 0 -101 -2 -105
-17 -4 -14 -5 -12 -6 5 -1 22 1 22 109 22 l109 0 -1 -67z m337 47 c-10 -11
-20 -18 -23 -15 -7 6 18 35 31 35 5 0 2 -9 -8 -20z m135 5 c20 -24 6 -28 -15
-5 -10 11 -13 20 -8 20 6 0 16 -7 23 -15z m-790 -68 c10 -4 8 -6 -6 -6 -12 -1
-25 6 -28 15 -5 13 -3 14 6 7 7 -6 20 -13 28 -16z m75 3 c-3 -5 -14 -10 -23
-9 -14 0 -13 2 3 9 27 11 27 11 20 0z m-833 -587 c2 -189 0 -278 -7 -270 -6 8
-8 161 -5 437 5 420 8 382 12 -167z m1580 -1 l3 -442 -50 -1 c-27 0 -76 -1
-108 -2 l-57 -2 2 515 3 515 2 -447 3 -448 95 0 95 0 2 453 c1 248 3 418 5
377 2 -41 4 -274 5 -518z m-155 532 c-6 -20 -13 -32 -14 -27 -4 11 14 63 21
63 2 0 -1 -16 -7 -36z m-1268 -24 c0 -9 -4 -8 -9 5 -5 11 -9 27 -9 35 0 9 4 8
9 -5 5 -11 9 -27 9 -35z m908 -2 c-3 -8 -6 -5 -6 6 -1 11 2 17 5 13 3 -3 4
-12 1 -19z m490 -45 c-2 -16 -4 -5 -4 22 0 28 2 40 4 28 2 -13 2 -35 0 -50z
m-1390 -20 c-3 -10 -5 -2 -5 17 0 19 2 27 5 18 2 -10 2 -26 0 -35z m382 -33
c12 -9 -4 -59 -23 -72 -7 -5 3 -21 27 -43 47 -45 37 -46 -13 -1 -31 28 -35 37
-27 52 6 11 16 23 24 27 10 6 8 18 -12 55 -14 26 -25 51 -25 57 1 5 10 -8 22
-30 11 -22 24 -42 27 -45z m41 70 c0 -5 -2 -10 -4 -10 -3 0 -8 5 -11 10 -3 6
-1 10 4 10 6 0 11 -4 11 -10z m400 -20 c0 -10 5 -22 10 -25 6 -3 10 -10 10
-15 0 -14 -27 -1 -28 13 0 7 -3 22 -6 35 -3 13 -1 20 5 17 5 -4 9 -15 9 -25z
m61 -4 c-14 -36 -22 -33 -9 5 6 16 12 28 14 26 3 -2 0 -16 -5 -31z m356 -13
c-3 -10 -5 -2 -5 17 0 19 2 27 5 18 2 -10 2 -26 0 -35z m-730 1 c-5 -5 -57 13
-57 20 0 3 14 0 31 -6 16 -6 28 -12 26 -14z m254 11 c-18 -8 -36 -15 -40 -15
-13 1 45 29 59 29 8 0 0 -6 -19 -14z m-351 -15 c-6 -11 -13 -20 -16 -20 -2 0
0 9 6 20 6 11 13 20 16 20 2 0 0 -9 -6 -20z m-210 -56 c0 -11 -22 -1 -47 21
l-28 26 38 -22 c20 -11 37 -23 37 -25z m890 38 c0 -4 -15 -16 -32 -26 l-33
-17 30 25 c33 29 35 30 35 18z m-424 -45 c-2 -7 -5 -4 -5 6 -1 9 -6 17 -12 17
-5 0 -7 5 -3 11 9 15 28 -16 20 -34z m-659 -104 c-2 -27 -3 -5 -3 47 0 52 1
74 3 48 2 -27 2 -69 0 -95z m1220 0 c-2 -27 -3 -5 -3 47 0 52 1 74 3 48 2 -27
2 -69 0 -95z m-647 106 c0 -5 -4 -9 -10 -9 -5 0 -10 7 -10 16 0 8 5 12 10 9 6
-3 10 -10 10 -16z m-366 -24 c20 -8 36 -12 36 -8 0 3 3 4 6 0 4 -3 -5 -20 -20
-37 -14 -17 -26 -28 -26 -24 0 4 7 16 17 26 9 10 14 19 12 21 -2 1 -20 10 -39
19 -44 21 -34 23 14 3z m646 -62 c-21 -18 -41 -33 -45 -33 -5 0 9 16 31 36 25
22 35 37 27 40 -7 3 -13 13 -13 21 0 11 5 9 18 -7 18 -23 18 -23 -18 -57z
m120 73 c0 -3 -4 -8 -10 -11 -5 -3 -10 -1 -10 4 0 6 5 11 10 11 6 0 10 -2 10
-4z m27 -22 c-16 -9 -31 -13 -34 -10 -3 3 5 10 18 15 37 15 47 12 16 -5z
m-443 -3 c3 -5 -1 -14 -8 -20 -12 -10 -13 -8 -9 8 6 23 9 25 17 12z m457 -63
c16 -29 2 -21 -22 15 -17 23 -18 28 -6 18 10 -8 23 -23 28 -33z m-321 22 c0
-5 -2 -10 -4 -10 -3 0 -8 5 -11 10 -3 6 -1 10 4 10 6 0 11 -4 11 -10z m687
-67 c-2 -16 -4 -3 -4 27 0 30 2 43 4 28 2 -16 2 -40 0 -55z m-870 35 c-3 -8
-6 -5 -6 6 -1 11 2 17 5 13 3 -3 4 -12 1 -19z m253 -18 c12 6 24 9 27 6 3 -3
-6 -11 -21 -17 -19 -9 -23 -15 -14 -21 8 -5 9 -8 2 -8 -7 0 -24 17 -40 38 -27
37 -27 37 -2 14 22 -20 29 -22 48 -12z m140 14 c-8 -8 -23 -20 -34 -25 -13 -6
-10 0 9 15 34 29 43 33 25 10z m-640 -31 c9 -9 -65 9 -74 18 -5 4 8 3 30 -2
21 -6 41 -13 44 -16z m231 3 c-6 -7 -10 -206 -11 -481 0 -258 -3 -471 -5 -474
-3 -2 -5 191 -5 431 l0 434 -47 17 c-44 16 -31 16 26 1 32 -9 23 18 -10 28
-23 7 -22 7 4 4 15 -2 27 1 27 5 0 5 -5 9 -12 9 -6 0 -8 3 -5 7 4 3 3 11 -2
17 -6 8 0 11 20 12 20 1 26 -2 20 -10z m522 7 c3 -5 -14 -9 -37 -9 -30 -1 -36
1 -21 6 26 11 53 12 58 3z m-802 -31 c-7 -2 -18 1 -23 6 -8 8 -4 9 13 5 13 -4
18 -8 10 -11z m114 8 c25 -11 -1 -11 -35 0 -20 6 -21 8 -5 8 11 0 29 -3 40 -8z
m590 0 c-11 -5 -27 -9 -35 -9 -9 0 -8 4 5 9 11 5 27 9 35 9 9 0 8 -4 -5 -9z
m98 -7 c-7 -2 -19 -2 -25 0 -7 3 -2 5 12 5 14 0 19 -2 13 -5z m-1154 -58 c0
-5 -4 -3 -9 5 -5 8 -9 22 -9 30 0 16 17 -16 18 -35z m121 -10 c-15 -40 -21
-27 -7 18 7 21 13 32 15 24 2 -7 -2 -26 -8 -42z m370 45 c20 -6 21 -8 5 -8
-11 0 -29 3 -40 8 -25 11 1 11 35 0z m433 3 c-7 -2 -19 -2 -25 0 -7 3 -2 5 12
5 14 0 19 -2 13 -5z m102 -3 c-11 -5 -27 -9 -35 -9 -9 0 -8 4 5 9 11 5 27 9
35 9 9 0 8 -4 -5 -9z m342 -22 c-3 -7 -5 -2 -5 12 0 14 2 19 5 13 2 -7 2 -19
0 -25z m133 -5 c-11 -17 -11 -17 -6 0 3 10 6 24 7 30 0 9 2 9 5 0 3 -7 0 -20
-6 -30z m-570 1 c-25 -7 -52 -13 -60 -13 -21 1 60 27 85 27 11 0 0 -6 -25 -14z
m505 -64 c14 0 29 9 35 21 7 11 14 18 17 15 10 -10 -29 -46 -50 -46 -22 0 -67
37 -67 54 0 6 10 -1 21 -16 13 -17 30 -28 44 -28z m-1371 2 c14 3 26 1 26 -3
0 -5 -12 -9 -27 -9 -27 0 -63 25 -63 44 0 6 9 0 19 -13 14 -18 25 -23 45 -19z
m-158 -294 c4 -7 3 -8 -5 -4 -6 4 -20 4 -31 1 -20 -6 -22 -37 -5 -65 3 -5 2
-10 -3 -10 -15 0 -30 64 -18 77 14 15 53 16 62 1z m34 -38 c0 -5 -2 -10 -4
-10 -3 0 -8 5 -11 10 -3 6 -1 10 4 10 6 0 11 -4 11 -10z m-45 -80 c9 -16 13
-30 9 -30 -3 0 1 -11 10 -25 9 -14 12 -25 6 -25 -6 0 -13 8 -17 18 -3 9 -15
29 -25 44 -10 14 -18 31 -18 37 0 21 20 11 35 -19z m265 -65 c0 -45 -4 -65
-12 -66 -7 0 -32 -1 -55 -1 l-42 0 21 -29 c12 -16 19 -31 16 -34 -3 -3 -15 11
-27 31 -26 44 -19 51 44 48 l45 -2 0 55 0 54 -85 -3 c-47 -2 -85 0 -85 5 0 4
41 7 90 7 l90 0 0 -65z m-140 4 c6 -10 7 -19 2 -19 -5 0 -14 12 -20 26 -14 29
2 24 18 -7z m-65 -59 c8 -16 15 -34 15 -40 0 -6 11 -28 25 -49 14 -21 27 -48
30 -60 2 -12 18 -41 35 -64 16 -22 30 -49 30 -58 0 -9 7 -22 15 -29 8 -7 15
-19 15 -27 0 -8 4 -12 9 -9 9 6 34 -18 27 -25 -2 -2 6 -4 19 -4 13 0 21 3 19
6 -2 4 3 12 10 18 11 9 14 9 12 -1 -7 -49 -51 -50 -96 -4 -19 19 -35 41 -36
51 -1 9 -9 24 -16 33 -8 10 -34 55 -57 101 -49 96 -64 124 -71 131 -3 3 -11
17 -17 33 -18 39 11 37 32 -3z m185 -65 c-21 -25 -32 -17 -13 9 10 13 20 20
21 15 2 -5 -2 -16 -8 -24z m1236 -12 c-7 -7 -26 7 -26 19 0 6 6 6 15 -2 9 -7
13 -15 11 -17z m144 23 c0 -2 -8 -10 -17 -17 -16 -13 -17 -12 -4 4 13 16 21
21 21 13z m-73 -42 c-3 -3 -12 -4 -19 -1 -8 3 -5 6 6 6 11 1 17 -2 13 -5z
m-1333 -30 c3 -8 2 -12 -4 -9 -6 3 -10 10 -10 16 0 14 7 11 14 -7z m36 -68 c0
-12 -5 -7 -19 24 -11 24 -11 24 3 6 9 -11 16 -24 16 -30z m24 -52 c3 -8 2 -12
-4 -9 -6 3 -10 10 -10 16 0 14 7 11 14 -7z m36 -67 c0 -16 -18 3 -23 25 -6 22
-5 22 8 4 8 -11 15 -24 15 -29z m340 -382 c0 -223 -3 -405 -7 -405 -5 0 -7
182 -5 405 1 223 5 405 7 405 3 0 5 -182 5 -405z m402 -143 c2 -144 0 -262 -4
-262 -5 0 -7 183 -6 408 1 224 4 342 5 262 2 -80 4 -263 5 -408z m-150 -307
l-4 -45 178 -2 179 -3 -180 -5 -180 -5 180 -5 180 -6 -182 -2 -183 -2 0 53 c0
43 5 67 14 67 1 0 0 -20 -2 -45z m-298 14 c-13 -13 -38 -22 -65 -24 l-44 -4
44 9 c25 5 52 16 60 25 8 8 18 15 20 15 3 0 -4 -9 -15 -21z m196 -34 l0 -55
-182 2 -183 3 180 5 180 5 -180 5 -180 6 178 2 177 2 0 35 c0 33 -1 34 -26 25
-14 -6 -37 -10 -52 -9 -19 1 -14 4 17 10 24 5 46 11 49 14 15 15 22 0 22 -50z
m351 15 l44 -9 -44 4 c-29 2 -51 11 -65 26 l-21 23 21 -17 c12 -10 41 -22 65
-27z m-152 14 c9 -8 -55 -2 -74 6 -13 6 -5 7 25 3 25 -3 47 -7 49 -9z m-512
-20 c-3 -3 -12 -4 -19 -1 -8 3 -5 6 6 6 11 1 17 -2 13 -5z m740 0 c-3 -3 -12
-4 -19 -1 -8 3 -5 6 6 6 11 1 17 -2 13 -5z"/>
<path d="M2659 1418 c-1 -2 -2 -24 -4 -50 -3 -56 -2 -57 105 -55 l75 2 2 53 3
52 -90 0 c-50 0 -90 -1 -91 -2z"/>
</g>
</svg>
